<svg width="178" height="56" viewBox="0 0 178 56" fill="none" xmlns="http://www.w3.org/2000/svg">
<path d="M6.79424 9.02601C7.52009 10.1221 8.33139 10.4793 9.22814 10.0974C9.59309 9.942 9.82353 9.73485 9.91944 9.47596C10.0216 9.22651 10.0039 8.84643 9.86617 8.3357L9.51883 6.9936C9.09952 5.39141 9.64584 4.2684 11.1578 3.62456C12.0337 3.25158 12.9159 3.19089 13.8043 3.44248C14.7095 3.69908 15.5124 4.35655 16.2133 5.41488C16.5074 5.859 16.741 6.32282 16.9141 6.80633C17.0977 7.2854 17.2322 7.82169 17.3178 8.41518L15.3595 8.57676C15.2572 8.03882 15.1415 7.59146 15.0121 7.23466C14.8995 6.88286 14.7337 6.5416 14.5147 6.21088C14.2268 5.77621 13.9098 5.46905 13.5636 5.2894C13.2341 5.11476 12.8451 5.1229 12.3967 5.31383C12.0631 5.45592 11.8431 5.65863 11.7367 5.92197C11.6471 6.19031 11.6638 6.55873 11.7868 7.02721L12.1342 8.36931C12.3365 9.17957 12.3032 9.86608 12.0342 10.4288C11.7819 10.9966 11.2491 11.4537 10.4358 11.8C9.49733 12.1996 8.5578 12.2545 7.61721 11.9645C6.68704 11.6701 5.84026 10.9465 5.07687 9.79366C4.77652 9.34009 4.521 8.8432 4.31032 8.30299C4.11633 7.76779 3.97447 7.14982 3.88473 6.44908L5.84303 6.2875C5.94319 6.92324 6.06315 7.44756 6.20291 7.86049C6.35935 8.27843 6.55647 8.66694 6.79424 9.02601Z" fill="#D7D7D7"/>
<path d="M14.3756 21.1616C14.06 21.0121 13.7384 20.8147 13.4108 20.5695C13.0734 20.33 12.7714 20.0635 12.5047 19.7699C12.0627 19.2834 11.8257 18.8247 11.7938 18.3939C11.762 17.9631 11.8955 17.5577 12.1943 17.1776C12.5008 16.806 12.9232 16.4629 13.4614 16.1485L16.8081 14.1933L15.8708 13.1615L17.3386 12.304L18.276 13.3358L20.2136 12.2039L21.5282 13.6509L19.5906 14.7828L21.3967 16.7709L19.9288 17.6285L18.1227 15.6404L14.776 17.5955C14.3258 17.8585 14.0774 18.1127 14.0309 18.3583C14.0017 18.6064 14.1128 18.8689 14.3643 19.1458C14.4862 19.28 14.6305 19.414 14.797 19.5479C14.9809 19.6844 15.2046 19.8234 15.4679 19.9649L14.3756 21.1616Z" fill="#D7D7D7"/>
<path d="M22.9555 29.733C22.5097 29.3651 22.2452 28.9962 22.162 28.6263C22.0875 28.2636 22.1276 27.9238 22.2823 27.6068C21.5489 27.5753 20.9224 27.4814 20.4029 27.3252C19.8834 27.1691 19.4226 26.925 19.0205 26.5932C18.4349 26.1099 18.1944 25.6031 18.2991 25.0727C18.4125 24.5495 18.7642 24.0581 19.3542 23.5983C19.7476 23.2918 20.1617 23.0813 20.5966 22.9668C21.0491 22.8526 21.5264 22.8664 22.0284 23.0082C22.5304 23.1499 23.0699 23.4589 23.6468 23.935C23.8741 24.1225 24.0922 24.3312 24.3012 24.5611C24.5191 24.7839 24.7281 25.0138 24.9282 25.2506L25.7194 24.6341C26.0948 24.3415 26.2491 24.06 26.1821 23.7896C26.1241 23.5123 25.9247 23.2329 25.5837 22.9516C25.3215 22.7352 24.9973 22.525 24.6111 22.321C24.2336 22.1243 23.7897 21.9372 23.2794 21.7599L24.1608 20.3788C25.4102 20.8218 26.3933 21.339 27.1101 21.9305C27.7569 22.4643 28.1434 22.9626 28.2696 23.4253C28.4044 23.8952 28.3586 24.3307 28.1319 24.7317C27.9052 25.1327 27.5818 25.4969 27.1616 25.8243L24.5468 27.8619C24.4127 27.9664 24.318 28.0963 24.2628 28.2515C24.2253 28.407 24.3157 28.5749 24.5343 28.7552L24.6785 28.8743L23.2571 29.9819L22.9555 29.733ZM20.8365 24.7785C20.5951 24.9666 20.4553 25.1596 20.4172 25.3576C20.388 25.5487 20.4739 25.7272 20.675 25.8931C20.876 26.059 21.1569 26.2047 21.5177 26.3304C21.8784 26.456 22.4566 26.5314 23.252 26.5567L23.8286 26.1074C23.4545 25.6696 23.049 25.2704 22.6119 24.9097C22.271 24.6284 21.9547 24.4821 21.6631 24.4709C21.3802 24.467 21.1046 24.5695 20.8365 24.7785Z" fill="#D7D7D7"/>
<path d="M37.0623 31.457C36.6096 31.1763 36.1172 30.9686 35.585 30.8342C35.0704 30.6975 34.4994 30.6432 33.872 30.6713L29.8478 34.844L28.1864 33.8136L34.1695 27.6097L35.7443 28.5863L34.8238 29.5407C35.6926 29.4538 36.3983 29.4482 36.941 29.524C37.4836 29.5997 37.9764 29.775 38.4194 30.0498L37.0623 31.457Z" fill="#D7D7D7"/>
<path d="M43.0028 41.9209C42.6559 41.9061 42.2845 41.8493 41.8888 41.7503C41.4864 41.6604 41.1056 41.5316 40.7462 41.3636C40.1507 41.0853 39.7532 40.7521 39.5538 40.3641C39.3544 39.9761 39.3158 39.5467 39.438 39.0757C39.5706 38.6095 39.8201 38.1243 40.1865 37.6201L42.4654 34.4847L41.2025 33.8945L42.202 32.5193L43.4649 33.1096L44.7842 31.2944L46.5553 32.1222L45.236 33.9374L47.6693 35.0748L46.6698 36.4499L44.2365 35.3126L41.9576 38.4479C41.6511 38.8696 41.5252 39.2037 41.5798 39.4503C41.6513 39.6926 41.8565 39.8928 42.1953 40.0512C42.3596 40.128 42.5441 40.1958 42.7489 40.2547C42.9706 40.3092 43.2296 40.3504 43.5257 40.3783L43.0028 41.9209Z" fill="#D7D7D7"/>
<path d="M61.0015 43.893L60.6475 44.8314C60.3915 45.5101 60.3261 46.0498 60.4514 46.4505C60.5767 46.8513 60.9202 47.1199 61.4819 47.2561C61.7573 47.3229 62.0777 47.3659 62.4431 47.3851C62.8235 47.3964 63.2455 47.3773 63.709 47.3277L63.6722 49.0028C63.1045 49.0734 62.5824 49.103 62.1059 49.0916C61.6293 49.0801 61.1763 49.0223 60.7467 48.9181C59.6453 48.6509 58.9308 48.1071 58.6031 47.2869C58.2754 46.4666 58.3236 45.4945 58.7476 44.3705L59.1017 43.4321C59.5297 42.2974 60.1616 41.4669 60.9974 40.9405C61.8372 40.4035 62.8077 40.2686 63.9091 40.5358C64.3276 40.6373 64.7337 40.7879 65.1272 40.9876C65.5207 41.1872 65.9203 41.4346 66.3259 41.7298L65.1866 43.1722C64.5056 42.6829 63.9008 42.3741 63.3722 42.2458C62.8105 42.1096 62.3389 42.1804 61.9576 42.4582C61.5803 42.7255 61.2616 43.2037 61.0015 43.893Z" fill="#D7D7D7"/>
<path d="M77.6237 51.9048C77.0497 51.8367 76.6099 51.6649 76.3042 51.3895C76.0097 51.1154 75.8156 50.7962 75.7218 50.432C75.1556 50.8204 74.6279 51.0938 74.1386 51.2521C73.6494 51.4105 73.1459 51.4589 72.6282 51.3975C71.8742 51.3081 71.3613 51.0023 71.0896 50.4804C70.8291 49.9597 70.7667 49.3316 70.9024 48.596C70.9929 48.1056 71.1621 47.6872 71.4101 47.3408C71.6713 46.9846 72.0353 46.7259 72.502 46.5649C72.9688 46.4039 73.5735 46.3675 74.3163 46.4556C74.6089 46.4903 74.9087 46.5487 75.2156 46.6306C75.5245 46.7014 75.8314 46.7834 76.1363 46.8765L76.3183 45.8902C76.4046 45.4221 76.3338 45.0891 76.1058 44.8912C75.8799 44.6822 75.5474 44.5516 75.1085 44.4995C74.7709 44.4595 74.3912 44.46 73.9696 44.5011C73.5593 44.5435 73.1059 44.6321 72.6095 44.7668L72.3547 43.0623C73.5757 42.7403 74.6477 42.634 75.5705 42.7435C76.4033 42.8423 77.0191 43.0577 77.4179 43.3897C77.8279 43.7231 78.0808 44.129 78.1766 44.6073C78.2723 45.0856 78.2719 45.5867 78.1752 46.1105L77.5738 49.3705C77.5429 49.5377 77.5581 49.7046 77.6194 49.8713C77.6939 50.0282 77.8719 50.1234 78.1532 50.1568L78.3389 50.1788L78.012 51.9509L77.6237 51.9048ZM72.7825 48.7849C72.7269 49.0858 72.7503 49.3335 72.8524 49.5278C72.9566 49.711 73.1381 49.818 73.397 49.8487C73.6559 49.8794 73.9608 49.8473 74.3119 49.7522C74.6629 49.6572 75.1425 49.3952 75.7507 48.9663L75.8833 48.2474C75.3166 48.0777 74.7519 47.9594 74.1892 47.8926C73.7503 47.8406 73.4187 47.8923 73.1945 48.0479C72.9815 48.2049 72.8442 48.4506 72.7825 48.7849Z" fill="#D7D7D7"/>
<path d="M89.6791 52.5249C89.3958 52.5273 89.1064 52.5015 88.811 52.4474C88.5269 52.3933 88.2369 52.3165 87.9408 52.217L87.992 55.9907L86.0371 56.0077L85.871 43.7689L87.724 43.7527L87.7399 44.9256C88.2653 44.3883 88.7138 44.0274 89.0853 43.8428C89.4568 43.6582 89.8466 43.5642 90.2546 43.5606C91.1952 43.5524 91.9253 43.8974 92.4448 44.5955C92.9643 45.2937 93.2327 46.2774 93.2499 47.5466L93.2623 48.4645C93.2791 49.6997 92.9807 50.6827 92.3673 51.4134C91.7538 52.1441 90.8578 52.5146 89.6791 52.5249ZM89.7523 45.384C89.4916 45.3863 89.215 45.4681 88.9225 45.6293C88.6412 45.7791 88.2881 46.0712 87.8633 46.5056L87.9168 50.4492C88.4752 50.671 88.9867 50.7799 89.4514 50.7758C90.1087 50.7701 90.5762 50.562 90.854 50.1516C91.1318 49.7411 91.2659 49.1846 91.2564 48.482L91.244 47.5641C91.2336 46.8048 91.0958 46.2507 90.8304 45.9017C90.5763 45.5525 90.2169 45.38 89.7523 45.384Z" fill="#D7D7D7"/>
<path d="M106.897 50.6099C106.631 50.7806 106.314 50.9292 105.948 51.0558C105.583 51.1935 105.204 51.2875 104.811 51.3376C104.159 51.4208 103.609 51.3541 103.163 51.1375C102.716 50.9209 102.356 50.5851 102.081 50.13C101.818 49.6735 101.625 49.1396 101.504 48.5281L100.75 44.7262L99.367 44.9027L99.0362 43.2352L100.419 43.0587L99.9823 40.8576L101.922 40.6102L102.358 42.8113L105.023 42.4714L105.353 44.1389L102.689 44.4788L103.443 48.2807C103.545 48.7921 103.711 49.1356 103.942 49.3114C104.182 49.4745 104.487 49.5324 104.858 49.4851C105.038 49.4622 105.226 49.4211 105.421 49.3619C105.626 49.2902 105.848 49.1878 106.087 49.0548L106.897 50.6099Z" fill="#D7D7D7"/>
<path d="M119.301 47.9981L118.885 46.9377C118.545 47.4872 118.195 47.9177 117.834 48.229C117.469 48.5297 117.061 48.7369 116.61 48.8505C115.863 49.039 115.191 48.9418 114.594 48.559C113.993 48.1656 113.519 47.5258 113.171 46.6395L111.061 41.2584L112.957 40.7804L114.98 45.9399C115.327 46.8262 115.842 47.1834 116.523 47.0116C116.798 46.9423 117.07 46.8042 117.339 46.5972C117.619 46.3875 117.919 46.045 118.24 45.5699L116.056 39.9989L117.951 39.5209L121.098 47.545L119.301 47.9981Z" fill="#D7D7D7"/>
<path d="M129.952 36.9176C129.456 37.1106 129.024 37.3682 128.658 37.6903C128.297 37.9986 128.004 38.3881 127.779 38.8586L130.779 43.819L128.957 44.5276L124.497 37.1525L126.224 36.4808L126.91 37.6155C127.167 36.9405 127.449 36.4238 127.754 36.0656C128.059 35.7073 128.455 35.4337 128.94 35.2447L129.952 36.9176Z" fill="#D7D7D7"/>
<path d="M135.171 30.477L133.342 31.4194L132.077 29.8409L133.905 28.8985L135.171 30.477ZM141.536 38.4993L139.799 39.3949L134.408 32.6695L136.146 31.7739L141.536 38.4993Z" fill="#D7D7D7"/>
<path d="M146.569 27.0168C146.335 27.177 146.118 27.4062 145.918 27.7043C145.718 28.0024 145.557 28.4281 145.435 28.9814L149.787 33.064L148.174 34.1693L141.888 28.2722L143.417 27.2246L144.26 28.0155C144.36 27.3964 144.533 26.8825 144.776 26.4738C145.012 26.0574 145.331 25.7114 145.733 25.4359C146.415 24.9681 147.128 24.7947 147.872 24.9157C148.607 25.0289 149.322 25.4112 150.016 26.0625L154.232 30.0172L152.619 31.1225L148.578 27.3307C147.883 26.6793 147.214 26.5747 146.569 27.0168Z" fill="#D7D7D7"/>
<path d="M165.058 20.8015C165.819 21.3155 166.148 21.9654 166.045 22.7509C165.96 23.535 165.453 24.3684 164.525 25.2512C164.09 25.6652 163.574 26.0646 162.977 26.4493C162.38 26.8341 161.744 27.1329 161.071 27.3458L160.196 26.0928C160.815 25.8702 161.365 25.607 161.844 25.3033C162.334 25.0059 162.763 24.6815 163.132 24.33C163.65 23.8378 163.964 23.4089 164.075 23.0432C164.187 22.6775 164.111 22.4058 163.848 22.2281C163.444 21.9552 163.033 22.018 162.614 22.4164L161.136 23.8226C160.734 24.2053 160.335 24.4631 159.938 24.596C159.541 24.7288 159.168 24.7705 158.819 24.7212C158.46 24.6656 158.149 24.5489 157.886 24.3712C157.613 24.1872 157.409 23.969 157.273 23.7166C157.135 23.45 157.054 23.161 157.028 22.8495C156.526 22.9911 156.011 23.0304 155.483 22.9675C154.963 22.8967 154.459 22.6963 153.97 22.3663C153.416 21.9918 153.059 21.5832 152.898 21.1404C152.737 20.6976 152.744 20.2479 152.919 19.7915C153.092 19.3208 153.396 18.8785 153.832 18.4644L154.041 18.2652C154.205 18.109 154.379 17.9662 154.564 17.8368C154.738 17.701 154.919 17.5826 155.105 17.4816L157.335 15.3606L158.715 16.2935L157.258 17.313C157.531 17.2974 157.814 17.3345 158.105 17.4243C158.395 17.5 158.699 17.6457 159.018 17.8615C159.497 18.1851 159.804 18.5659 159.938 19.0038C160.07 19.4276 160.054 19.8709 159.889 20.3338C159.722 20.7825 159.426 21.2099 158.999 21.6161L158.789 21.8153C158.625 21.9716 158.455 22.1105 158.279 22.2321C158.301 22.3942 158.353 22.536 158.434 22.6575C158.506 22.7728 158.593 22.8653 158.696 22.9351C159.025 23.1572 159.374 23.0925 159.744 22.741L161.246 21.3114C161.813 20.7723 162.438 20.453 163.12 20.3534C163.802 20.2396 164.448 20.389 165.058 20.8015ZM157.675 20.7213C157.929 20.4791 158.052 20.2016 158.044 19.8886C158.044 19.5678 157.856 19.2805 157.48 19.0267C157.105 18.7728 156.72 18.673 156.326 18.7272C155.94 18.7736 155.619 18.9179 155.365 19.1601L155.155 19.3593C154.893 19.6092 154.761 19.8946 154.762 20.2154C154.77 20.5283 154.962 20.8117 155.337 21.0656C155.713 21.3195 156.094 21.4232 156.48 21.3768C156.874 21.3226 157.203 21.1705 157.465 20.9205L157.675 20.7213Z" fill="#D7D7D7"/>
<path d="M170.421 5.81543L169.607 7.11124L165.385 5.623L161.916 4.22292L162.956 2.56716L166.424 3.96725L170.421 5.81543ZM173.693 6.8659L172.6 8.60804L170.724 7.85072L171.818 6.10858L173.693 6.8659Z" fill="#D7D7D7"/>
</svg>
